<svg width="118" height="22" viewBox="0 0 118 22" fill="none" xmlns="http://www.w3.org/2000/svg">
<path d="M13.032 1.344V5.18H5.024V9.324H11.016V13.048H5.024V21H0.236V1.344H13.032ZM30.2765 12.936C30.2765 13.384 30.2485 13.8507 30.1925 14.336H19.3565C19.4312 15.3067 19.7392 16.0533 20.2805 16.576C20.8405 17.08 21.5218 17.332 22.3245 17.332C23.5192 17.332 24.3498 16.828 24.8165 15.82H29.9125C29.6512 16.8467 29.1752 17.7707 28.4845 18.592C27.8125 19.4133 26.9632 20.0573 25.9365 20.524C24.9098 20.9907 23.7618 21.224 22.4925 21.224C20.9618 21.224 19.5992 20.8973 18.4045 20.244C17.2098 19.5907 16.2765 18.6573 15.6045 17.444C14.9325 16.2307 14.5965 14.812 14.5965 13.188C14.5965 11.564 14.9232 10.1453 15.5765 8.932C16.2485 7.71867 17.1818 6.78533 18.3765 6.132C19.5712 5.47867 20.9432 5.152 22.4925 5.152C24.0045 5.152 25.3485 5.46933 26.5245 6.104C27.7005 6.73867 28.6152 7.644 29.2685 8.82C29.9405 9.996 30.2765 11.368 30.2765 12.936ZM25.3765 11.676C25.3765 10.8547 25.0965 10.2013 24.5365 9.716C23.9765 9.23067 23.2765 8.988 22.4365 8.988C21.6338 8.988 20.9525 9.22133 20.3925 9.688C19.8512 10.1547 19.5152 10.8173 19.3845 11.676H25.3765ZM47.5304 12.936C47.5304 13.384 47.5024 13.8507 47.4464 14.336H36.6104C36.6851 15.3067 36.9931 16.0533 37.5344 16.576C38.0944 17.08 38.7757 17.332 39.5784 17.332C40.7731 17.332 41.6037 16.828 42.0704 15.82H47.1664C46.9051 16.8467 46.4291 17.7707 45.7384 18.592C45.0664 19.4133 44.2171 20.0573 43.1904 20.524C42.1637 20.9907 41.0157 21.224 39.7464 21.224C38.2157 21.224 36.8531 20.8973 35.6584 20.244C34.4637 19.5907 33.5304 18.6573 32.8584 17.444C32.1864 16.2307 31.8504 14.812 31.8504 13.188C31.8504 11.564 32.1771 10.1453 32.8304 8.932C33.5024 7.71867 34.4357 6.78533 35.6304 6.132C36.8251 5.47867 38.1971 5.152 39.7464 5.152C41.2584 5.152 42.6024 5.46933 43.7784 6.104C44.9544 6.73867 45.8691 7.644 46.5224 8.82C47.1944 9.996 47.5304 11.368 47.5304 12.936ZM42.6304 11.676C42.6304 10.8547 42.3504 10.2013 41.7904 9.716C41.2304 9.23067 40.5304 8.988 39.6904 8.988C38.8877 8.988 38.2064 9.22133 37.6464 9.688C37.1051 10.1547 36.7691 10.8173 36.6384 11.676H42.6304ZM58.7643 16.94V21H56.3283C54.5923 21 53.239 20.58 52.2683 19.74C51.2976 18.8813 50.8123 17.4907 50.8123 15.568V9.352H48.9083V5.376H50.8123V1.568H55.6003V5.376H58.7363V9.352H55.6003V15.624C55.6003 16.0907 55.7123 16.4267 55.9363 16.632C56.1603 16.8373 56.5336 16.94 57.0563 16.94H58.7643ZM78.4553 1.344V21H73.6673V12.908H66.2193V21H61.4313V1.344H66.2193V9.044H73.6673V1.344H78.4553ZM97.3398 5.376V21H92.5518V18.872C92.0664 19.5627 91.4038 20.1227 90.5638 20.552C89.7424 20.9627 88.8278 21.168 87.8198 21.168C86.6251 21.168 85.5704 20.9067 84.6558 20.384C83.7411 19.8427 83.0318 19.068 82.5278 18.06C82.0238 17.052 81.7718 15.8667 81.7718 14.504V5.376H86.5318V13.86C86.5318 14.9053 86.8024 15.7173 87.3438 16.296C87.8851 16.8747 88.6131 17.164 89.5278 17.164C90.4611 17.164 91.1984 16.8747 91.7398 16.296C92.2811 15.7173 92.5518 14.9053 92.5518 13.86V5.376H97.3398ZM105.567 7.588C106.015 6.86 106.659 6.272 107.499 5.824C108.339 5.376 109.3 5.152 110.383 5.152C111.671 5.152 112.838 5.47867 113.883 6.132C114.928 6.78533 115.75 7.71867 116.347 8.932C116.963 10.1453 117.271 11.5547 117.271 13.16C117.271 14.7653 116.963 16.184 116.347 17.416C115.75 18.6293 114.928 19.572 113.883 20.244C112.838 20.8973 111.671 21.224 110.383 21.224C109.282 21.224 108.32 21.0093 107.499 20.58C106.678 20.132 106.034 19.544 105.567 18.816V21H100.779V0.28H105.567V7.588ZM112.399 13.16C112.399 11.9653 112.063 11.032 111.391 10.36C110.738 9.66933 109.926 9.324 108.955 9.324C108.003 9.324 107.191 9.66933 106.519 10.36C105.866 11.0507 105.539 11.9933 105.539 13.188C105.539 14.3827 105.866 15.3253 106.519 16.016C107.191 16.7067 108.003 17.052 108.955 17.052C109.907 17.052 110.719 16.7067 111.391 16.016C112.063 15.3067 112.399 14.3547 112.399 13.16Z" fill="#FACC15"/>
</svg>
